HIERARCHY
ROOT root
{
	OFFSET	0	13.1	24.9
	CHANNELS 6  Xposition Yposition Zposition Xrotation Yrotation Zrotation
	JOINT spine_1
	{
		OFFSET	0	9.99999	0
		CHANNELS 3  Xrotation Yrotation Zrotation
		JOINT spine_2
		{
			OFFSET	0	112	-10
			CHANNELS 3  Xrotation Yrotation Zrotation
			JOINT spine_3
			{
				OFFSET	0	206.5	19.3
				CHANNELS 3  Xrotation Yrotation Zrotation
				JOINT spine_4
				{
					OFFSET	0	110.4	14.6
					CHANNELS 3  Xrotation Yrotation Zrotation
					JOINT neck_1
					{
						OFFSET	0	71.8	-50.3
						CHANNELS 3  Xrotation Yrotation Zrotation
						JOINT neck_2
						{
							OFFSET	0	86.2	-25.8
							CHANNELS 3  Xrotation Yrotation Zrotation
							JOINT head_ee
							{
								OFFSET	0	179.8	-8.7
								CHANNELS 3  Xrotation Yrotation Zrotation
								End Site
								{
									OFFSET	1	0	0
								}
							}
						}
					}
					JOINT left_clavicle
					{
						OFFSET	-43.2	22.4	-70.8
						CHANNELS 3  Xrotation Yrotation Zrotation
						JOINT left_shoulder
						{
							OFFSET	-93.9	-5.79999	48.7
							CHANNELS 3  Xrotation Yrotation Zrotation
							JOINT left_elbow
							{
								OFFSET	-291.4	-30.8	15.2
								CHANNELS 3  Xrotation Yrotation Zrotation
								JOINT left_lowarm_twist
								{
									OFFSET	-110.7	-3.89999	13.6
									CHANNELS 3  Xrotation Yrotation Zrotation
									JOINT left_hand
									{
										OFFSET	-110.7	-3.89999	13.6
										CHANNELS 3  Xrotation Yrotation Zrotation
										JOINT left_ee
										{
											OFFSET	-80.8	-5.10001	12.1
											CHANNELS 3  Xrotation Yrotation Zrotation
											End Site
											{
												OFFSET	1	0	0
											}
										}
									}
								}
							}
						}
					}
					JOINT right_clavicle
					{
						OFFSET	43.2	22.4	-70.8
						CHANNELS 3  Xrotation Yrotation Zrotation
						JOINT right_shoulder
						{
							OFFSET	93.9	-5.79999	48.7
							CHANNELS 3  Xrotation Yrotation Zrotation
							JOINT right_elbow
							{
								OFFSET	291.4	-30.8	15.2
								CHANNELS 3  Xrotation Yrotation Zrotation
								JOINT right_lowarm_twist
								{
									OFFSET	110.7	-3.89999	13.6
									CHANNELS 3  Xrotation Yrotation Zrotation
									JOINT right_hand
									{
										OFFSET	110.7	-3.89999	13.6
										CHANNELS 3  Xrotation Yrotation Zrotation
										JOINT right_ee
										{
											OFFSET	80.8	-5.10001	12.1
											CHANNELS 3  Xrotation Yrotation Zrotation
											End Site
											{
												OFFSET	1	0	0
											}
										}
									}
								}
							}
						}
					}
				}
			}
		}
	}
	JOINT left_hip
	{
		OFFSET	-82.8	-127.5	0.300001
		CHANNELS 3  Xrotation Yrotation Zrotation
		JOINT left_knee
		{
			OFFSET	-28.2	-396.7	2.2
			CHANNELS 3  Xrotation Yrotation Zrotation
			JOINT left_ankle
			{
				OFFSET	-11.7	-411.3	35.4
				CHANNELS 3  Xrotation Yrotation Zrotation
				JOINT left_toes
				{
					OFFSET	0	-60	-88.6
					CHANNELS 3  Xrotation Yrotation Zrotation
					JOINT left_foot_ee
					{
						OFFSET	-22.5	-16.5	-42.2
						CHANNELS 3  Xrotation Yrotation Zrotation
						End Site
						{
							OFFSET	1	0	0
						}
					}
				}
			}
		}
	}
	JOINT right_hip
	{
		OFFSET	82.8	-127.5	0.300001
		CHANNELS 3  Xrotation Yrotation Zrotation
		JOINT right_knee
		{
			OFFSET	28.2	-396.7	2.2
			CHANNELS 3  Xrotation Yrotation Zrotation
			JOINT right_ankle
			{
				OFFSET	11.7	-411.3	35.4
				CHANNELS 3  Xrotation Yrotation Zrotation
				JOINT right_toes
				{
					OFFSET	0	-60	-88.6
					CHANNELS 3  Xrotation Yrotation Zrotation
					JOINT right_foot_ee
					{
						OFFSET	22.5	-16.5	-42.2
						CHANNELS 3  Xrotation Yrotation Zrotation
						End Site
						{
							OFFSET	1	0	0
						}
					}
				}
			}
		}
	}
}
MOTION
Frames: 8
Frame Time: 0.02
1946.62 725.791 -450.897 89.3226 -82.9469 96.1746 -2.26042 0.0519287 -3.42359 -2.25394 0.269547 -3.41337 -2.26432 1.11111 -3.23889 -2.27848 0.585955 -3.37353 -15.6419 -0.0638611 6.65186 -15.5329 -4.00595 6.24944 -0.0 0.0 -0.0 5.04846 23.6096 9.6751 -32.3611 -30.5565 59.7139 0.782787 -21.1947 0.146459 -81.7941 -8.04898 5.25199 -0.991167 13.8983 -0.492045 -0.0 0.0 -0.0 7.82737 17.2032 -14.7897 7.08237 -6.31349 -63.6179 1.44103 35.5188 -0.46156 79.0766 3.7325 8.55686 3.24781 -30.1292 -30.6076 0.0 0.0 0.0 44.9301 56.0627 -39.9904 -6.026 0.200788 0.902592 34.1298 -31.3966 -5.39516 -15.9973 0.0 0.0 -0.0 0.0 -0.0 -7.79191 16.3922 -14.6827 -13.281 -0.315169 -2.00922 39.9679 -0.697521 4.86843 -29.6664 0.0 0.0 0.0 0.0 0.0 
1958.0 723.203 -448.628 91.125 -82.7134 97.7049 -2.2038 0.156876 -3.29166 -2.19785 0.365901 -3.27504 -2.21392 1.16731 -3.08193 -2.22656 0.666198 -3.22742 -15.2222 -0.28023 6.16359 -15.131 -4.17817 5.72837 -0.0 0.0 -0.0 4.80284 23.5423 9.33428 -33.5382 -30.2689 59.8853 0.705886 -19.2735 0.119859 -81.6215 -8.02717 5.25497 -0.67178 13.176 1.1947 -0.0 0.0 -0.0 8.28987 21.9043 -15.4522 8.48214 -5.05745 -62.4909 1.24156 31.5915 -0.351238 77.9873 3.60851 8.49226 2.96952 -30.0911 -28.8359 0.0 0.0 0.0 47.4503 54.393 -40.4383 -7.85561 0.24284 1.1802 32.226 -31.08 -5.14923 -16.1943 0.0 0.0 -0.0 0.0 -0.0 -10.3913 15.6593 -14.1066 -10.5422 -0.288472 -1.58989 40.1732 -2.72402 4.87638 -29.9214 0.0 0.0 0.0 0.0 0.0 
1966.0 717.337 -446.992 88.9066 -82.6981 95.2748 -2.20175 0.012375 -3.18064 -2.19615 0.214639 -3.17342 -2.2031 0.994733 -3.02127 -2.21548 0.505346 -3.14031 -16.0094 -0.295887 5.89155 -15.9277 -3.96918 5.44193 -0.0 0.0 -0.0 4.45664 23.2309 8.85801 -34.9261 -29.8674 59.8589 0.666983 -18.2838 0.107335 -81.0974 -7.96089 5.26362 -0.578572 12.879 1.65445 -0.0 0.0 -0.0 8.88308 26.5417 -16.3194 10.3024 -3.79178 -61.327 1.1116 28.8386 -0.285817 77.7982 3.58711 8.48081 2.98219 -29.6059 -28.8428 0.0 0.0 0.0 48.4967 52.6672 -41.0012 -10.7906 0.29172 1.62787 33.333 -29.996 -5.20851 -14.8997 0.0 0.0 -0.0 0.0 -0.0 -11.0421 14.4855 -14.0062 -11.7428 -0.302643 -1.77356 41.0345 -3.45595 4.94757 -29.7214 0.0 0.0 0.0 0.0 0.0 
1973.47 715.452 -447.314 87.0835 -82.3121 93.3047 -2.21704 -0.114436 -3.10188 -2.2117 0.0830798 -3.10288 -2.21112 0.850005 -2.98545 -2.22337 0.368078 -3.08211 -17.9488 -0.619461 4.53521 -17.908 -3.65834 4.00088 -0.0 0.0 -0.0 4.10862 22.6044 8.37689 -35.8914 -29.9845 60.9223 0.618319 -17.0298 0.0925736 -80.4089 -7.87369 5.27405 0.142023 11.1285 5.50583 -0.0 0.0 -0.0 9.60553 28.1984 -17.7372 11.8719 -2.31579 -60.261 1.08473 28.2502 -0.272977 75.5238 3.33278 8.33758 2.76856 -28.4742 -27.3102 0.0 0.0 0.0 49.9049 51.7803 -41.4176 -13.6377 0.31717 2.06392 29.2559 -28.8266 -4.64476 -14.4676 0.0 0.0 -0.0 0.0 -0.0 -13.8481 14.2797 -13.799 -7.57317 -0.236928 -1.13726 40.854 -7.13527 4.93477 -30.1673 0.0 0.0 0.0 0.0 0.0 
1988.22 711.499 -446.874 87.9438 -81.3782 93.9846 -2.25267 -0.0728757 -3.01214 -2.24763 0.118854 -3.01068 -2.24916 0.863713 -2.88668 -2.26056 0.397191 -2.98675 -20.8686 -1.00841 4.49983 -20.84 -4.16415 3.74254 -0.0 0.0 -0.0 3.89832 21.9079 8.08063 -36.7615 -29.8232 61.0551 0.515178 -14.3167 0.0647021 -80.484 -7.88321 5.27296 0.590813 9.87984 7.90412 -0.0 0.0 -0.0 9.86103 28.06 -18.3222 12.9162 -0.164224 -59.9571 1.13278 29.298 -0.296112 72.25 2.97712 8.114 2.5616 -28.8566 -26.0909 0.0 0.0 0.0 49.3974 49.9939 -39.8836 -15.5524 0.322088 2.35764 25.0663 -25.3089 -3.93118 -13.2703 0.0 0.0 -0.0 0.0 -0.0 -18.6916 14.106 -13.323 -1.08003 -0.0429617 -0.160175 41.079 -9.89777 4.96917 -30.9327 0.0 0.0 0.0 0.0 0.0 
1999.63 710.082 -450.347 86.6013 -80.8145 92.7223 -2.2588 -0.18899 -3.04513 -2.25364 0.00507003 -3.05098 -2.24877 0.76338 -2.95402 -2.26083 0.287494 -3.03742 -22.3221 -0.951729 4.43109 -22.2947 -3.90898 3.67476 -0.0 0.0 -0.0 3.79749 21.3985 7.93485 -37.1046 -30.2229 62.4963 0.428034 -11.9716 0.0448813 -80.3081 -7.86091 5.27549 1.22062 8.13413 11.3611 -0.0 0.0 -0.0 10.2184 26.5482 -19.2931 14.0265 0.432513 -59.296 1.30817 32.9428 -0.386803 69.2629 2.66424 7.89264 2.48268 -28.2826 -25.4937 0.0 0.0 0.0 49.12 49.3949 -38.0484 -15.549 0.322088 2.35712 19.2544 -21.2323 -2.99782 -12.7874 0.0 0.0 -0.0 0.0 -0.0 -22.2688 14.0292 -13.1422 3.68853 0.169373 0.54051 40.9086 -13.317 4.98945 -31.4497 0.0 0.0 0.0 0.0 0.0 
2006.38 708.189 -450.766 85.4222 -80.706 91.3726 -2.25458 -0.290284 -2.95435 -2.24973 -0.101787 -2.96682 -2.23936 0.638313 -2.89918 -2.25104 0.172641 -2.96354 -23.9158 -0.770907 4.33613 -23.8862 -3.39412 3.64975 -0.0 0.0 -0.0 3.80851 21.1003 7.94986 -37.3443 -30.4491 63.295 0.372999 -10.4688 0.0341715 -80.1492 -7.84076 5.27771 1.63383 6.49342 13.5027 -0.0 0.0 -0.0 10.5373 26.2956 -20.0363 14.7224 1.03884 -58.9381 1.42014 35.1241 -0.44948 67.7485 2.51015 7.77429 2.45228 -27.7214 -25.1934 0.0 0.0 0.0 48.7227 49.1973 -37.2729 -15.1752 0.321896 2.29976 14.982 -19.9077 -2.35455 -12.2822 0.0 0.0 -0.0 0.0 -0.0 -24.4524 13.783 -12.8605 6.90051 0.345005 1.00168 40.0391 -15.7395 4.94779 -31.9543 0.0 0.0 0.0 0.0 0.0 
2019.68 704.986 -455.472 85.0131 -80.0184 91.0509 -2.25241 -0.352073 -2.99194 -2.24744 -0.161063 -3.00826 -2.23361 0.590834 -2.95411 -2.24576 0.117093 -3.01029 -24.7971 -1.01733 4.47975 -24.7721 -3.86273 3.65209 -0.0 0.0 -0.0 3.74956 21.0511 7.86379 -37.5404 -30.325 63.8974 0.332445 -9.35192 0.0271916 -79.975 -7.81866 5.28008 1.97235 5.89756 15.5727 -0.0 0.0 -0.0 10.2431 25.7666 -19.4331 15.0389 2.25317 -59.1418 1.50146 36.6387 -0.497149 66.3892 2.37455 7.66464 2.45795 -27.0782 -25.096 0.0 0.0 0.0 48.1016 47.3691 -36.3351 -17.4106 0.317476 2.64269 12.6149 -17.6937 -1.96598 -12.0676 0.0 0.0 -0.0 0.0 -0.0 -26.133 13.8841 -12.2847 6.56886 0.325673 0.954517 41.0796 -16.408 5.0519 -31.9724 0.0 0.0 0.0 0.0 0.0 
